<?xml version="1.0" encoding="UTF-8" standalone="no"?>
<!-- Created with Inkscape (http://www.inkscape.org/) -->

<svg
   xmlns:dc="http://purl.org/dc/elements/1.1/"
   xmlns:cc="http://creativecommons.org/ns#"
   xmlns:rdf="http://www.w3.org/1999/02/22-rdf-syntax-ns#"
   xmlns:svg="http://www.w3.org/2000/svg"
   xmlns="http://www.w3.org/2000/svg"
   xmlns:sodipodi="http://sodipodi.sourceforge.net/DTD/sodipodi-0.dtd"
   xmlns:inkscape="http://www.inkscape.org/namespaces/inkscape"
   width="79.03627mm"
   height="33.943695mm"
   viewBox="0 0 280.04977 120.27294"
   id="svg2"
   version="1.1"
   inkscape:version="0.91 r13725"
   sodipodi:docname="icons.svg">
  <defs
     id="defs4" />
  <sodipodi:namedview
     id="base"
     pagecolor="#ffffff"
     bordercolor="#666666"
     borderopacity="1.0"
     inkscape:pageopacity="0.0"
     inkscape:pageshadow="2"
     inkscape:zoom="1.979899"
     inkscape:cx="164.87704"
     inkscape:cy="51.323596"
     inkscape:document-units="px"
     inkscape:current-layer="layer1"
     showgrid="true"
     inkscape:window-width="1440"
     inkscape:window-height="791"
     inkscape:window-x="0"
     inkscape:window-y="0"
     inkscape:window-maximized="1"
     fit-margin-top="0"
     fit-margin-left="0"
     fit-margin-right="0"
     fit-margin-bottom="0"
     inkscape:snap-bbox="true">
    <inkscape:grid
       type="xygrid"
       id="grid4384"
       originx="-0.127964"
       originy="-19.727742" />
  </sodipodi:namedview>
  <metadata
     id="metadata7">
    <rdf:RDF>
      <cc:Work
         rdf:about="">
        <dc:format>image/svg+xml</dc:format>
        <dc:type
           rdf:resource="http://purl.org/dc/dcmitype/StillImage" />
        <dc:title></dc:title>
      </cc:Work>
    </rdf:RDF>
  </metadata>
  <g
     inkscape:label="Layer 1"
     inkscape:groupmode="layer"
     id="layer1"
     transform="translate(-22.35132,-13.32576)">
    <path
       style="opacity:1;fill:#ffffff;fill-opacity:1;fill-rule:nonzero;stroke:none;stroke-width:5;stroke-linecap:round;stroke-linejoin:round;stroke-miterlimit:4;stroke-dasharray:none;stroke-opacity:1"
       d="m 260.17773,-5.6503906 a 20,20 0 0 0 -20,19.9999996 20,20 0 0 0 20,20 20,20 0 0 0 20,-20 20,20 0 0 0 -20,-19.9999996 z M 250,6.8945312 l 10,0 c 2.77,10e-8 5,2.2300003 5,4.9999998 l 0,5 c 0,0.512521 -0.0983,0.996096 -0.24023,1.460938 -1.39186,0.119569 -2.78122,0.116675 -3.93555,-0.466797 C 261.54773,17.123648 262,16.150759 262,15.072266 l 0,-1.177735 c 0,-2.443536 -2.23,-4.410156 -5,-4.410156 l -4,0 c -2.77,0 -5,1.96662 -5,4.410156 l 0,1.177735 c 0,2.443536 2.23,4.412109 5,4.412109 l 1.70898,0 c 0.56635,1.122725 1.20408,1.901599 1.88282,2.410156 l -6.5918,0 c -2.77,0 -5,-2.23 -5,-5 l 0,-5 c 0,-2.7699994 2.23,-4.9999998 5,-4.9999998 z m 13.49805,0.044922 6.59179,0 c 2.77,0 5,2.2300002 5,4.9999998 l 0,5 c 0,2.77 -2.23,5 -5,5 l -10,0 c -2.77,0 -5,-2.23 -5,-5 l 0,-5 c 0,-0.512521 0.0983,-0.996095 0.24024,-1.460937 1.39186,-0.119569 2.78121,-0.116674 3.93554,0.466796 -0.72351,0.765026 -1.17578,1.737914 -1.17578,2.816407 l 0,1.177734 c 0,2.443536 2.23,4.410156 5,4.410156 l 4,0 c 2.77,0 5,-1.96662 5,-4.410156 l 0,-1.177734 c 0,-2.443536 -2.23,-4.4121095 -5,-4.4121095 l -1.70898,0 C 264.81451,8.2268837 264.17679,7.44801 263.49805,6.9394532 Z"
       transform="translate(22.223356,18.976151)"
       id="circle4420"
       inkscape:connector-curvature="0" />
    <g
       transform="translate(22.35132,-999.03351)"
       id="layer1-6"
       inkscape:label="Layer 1">
      <path
         id="path4192"
         transform="translate(0,1012.3622)"
         d="M 20,0 A 20,20 0 0 0 0,20 20,20 0 0 0 20,40 20,20 0 0 0 40,20 20,20 0 0 0 20,0 Z M 9.59375,12.175781 20.3125,22.892578 30.763672,12.443359 34.298828,15.978516 20.21875,30.056641 16.683594,26.521484 16.777344,26.427734 6.0585938,15.710938 9.59375,12.175781 Z"
         style="opacity:1;fill:#ffffff;fill-opacity:1;fill-rule:nonzero;stroke:none;stroke-width:1;stroke-linecap:round;stroke-linejoin:round;stroke-miterlimit:4;stroke-dasharray:none;stroke-opacity:1"
         inkscape:connector-curvature="0" />
    </g>
    <g
       transform="translate(142.17902,-998.7908)"
       id="layer1-5"
       inkscape:label="Layer 1"
       style="fill:#ffffff;fill-opacity:1">
      <path
         id="path4143"
         transform="translate(0,1012.3622)"
         d="M 20,0 A 20,20 0 0 0 0,20 20,20 0 0 0 20,40 20,20 0 0 0 40,20 20,20 0 0 0 20,0 Z m -15,17 30,0 0,6 -30,0 0,-6 z"
         style="opacity:1;fill:#ffffff;fill-opacity:1;fill-rule:nonzero;stroke:none;stroke-width:5;stroke-linecap:round;stroke-linejoin:round;stroke-miterlimit:4;stroke-dasharray:none;stroke-opacity:1"
         inkscape:connector-curvature="0" />
    </g>
    <g
       transform="translate(102.2709,-999.02896)"
       id="layer1-1"
       inkscape:label="Layer 1">
      <path
         id="path4136"
         transform="translate(0,1012.3622)"
         d="M 20,0.08984375 A 20,19.955357 0 0 0 0,20.044922 20,19.955357 0 0 0 20,40 20,19.955357 0 0 0 40,20.044922 20,19.955357 0 0 0 20,0.08984375 Z M 17.052734,5 l 5.982422,0 0,12.091797 11.933594,-0.04492 0.0625,5.882813 -11.996094,0.04492 0,12.025391 -5.982422,0 0,-12.003906 -12.021484,0.04492 -0.0625,-5.88086 12.083984,-0.04492 0,-12.115234 z"
         style="opacity:1;fill:#ffffff;fill-opacity:1;fill-rule:nonzero;stroke:none;stroke-width:1;stroke-linecap:round;stroke-linejoin:round;stroke-miterlimit:4;stroke-dasharray:none;stroke-opacity:1"
         inkscape:connector-curvature="0" />
    </g>
    <g
       inkscape:label="Layer 1"
       id="g4386"
       transform="matrix(1,0,0,-1,62.262034,1065.6909)">
      <path
         inkscape:connector-curvature="0"
         style="opacity:1;fill:#ffffff;fill-opacity:1;fill-rule:nonzero;stroke:none;stroke-width:1;stroke-linecap:round;stroke-linejoin:round;stroke-miterlimit:4;stroke-dasharray:none;stroke-opacity:1"
         d="M 20,0 A 20,20 0 0 0 0,20 20,20 0 0 0 20,40 20,20 0 0 0 40,20 20,20 0 0 0 20,0 Z M 9.59375,12.175781 20.3125,22.892578 30.763672,12.443359 34.298828,15.978516 20.21875,30.056641 16.683594,26.521484 16.777344,26.427734 6.0585938,15.710938 9.59375,12.175781 Z"
         transform="translate(0,1012.3622)"
         id="path4388" />
    </g>
    <g
       inkscape:label="Layer 1"
       id="g4390"
       transform="translate(142.30529,-958.7635)"
       style="fill:#cccccc;fill-opacity:1">
      <path
         inkscape:connector-curvature="0"
         style="opacity:1;fill:#cccccc;fill-opacity:1;fill-rule:nonzero;stroke:none;stroke-width:5;stroke-linecap:round;stroke-linejoin:round;stroke-miterlimit:4;stroke-dasharray:none;stroke-opacity:1"
         d="M 20,0 A 20,20 0 0 0 0,20 20,20 0 0 0 20,40 20,20 0 0 0 40,20 20,20 0 0 0 20,0 Z m -15,17 30,0 0,6 -30,0 0,-6 z"
         transform="translate(0,1012.3622)"
         id="path4392" />
    </g>
    <g
       inkscape:label="Layer 1"
       id="g4394"
       transform="translate(22.35132,-958.87994)"
       style="fill:#cccccc;fill-opacity:1">
      <path
         inkscape:connector-curvature="0"
         style="opacity:1;fill:#cccccc;fill-opacity:1;fill-rule:nonzero;stroke:none;stroke-width:1;stroke-linecap:round;stroke-linejoin:round;stroke-miterlimit:4;stroke-dasharray:none;stroke-opacity:1"
         d="M 20,0 A 20,20 0 0 0 0,20 20,20 0 0 0 20,40 20,20 0 0 0 40,20 20,20 0 0 0 20,0 Z M 9.59375,12.175781 20.3125,22.892578 30.763672,12.443359 34.298828,15.978516 20.21875,30.056641 16.683594,26.521484 16.777344,26.427734 6.0585938,15.710938 9.59375,12.175781 Z"
         transform="translate(0,1012.3622)"
         id="path4396" />
    </g>
    <g
       inkscape:label="Layer 1"
       id="g4398"
       transform="translate(102.2709,-959.12793)"
       style="fill:#cccccc;fill-opacity:1">
      <path
         inkscape:connector-curvature="0"
         style="opacity:1;fill:#cccccc;fill-opacity:1;fill-rule:nonzero;stroke:none;stroke-width:1;stroke-linecap:round;stroke-linejoin:round;stroke-miterlimit:4;stroke-dasharray:none;stroke-opacity:1"
         d="M 20,0.08984375 A 20,19.955357 0 0 0 0,20.044922 20,19.955357 0 0 0 20,40 20,19.955357 0 0 0 40,20.044922 20,19.955357 0 0 0 20,0.08984375 Z M 17.052734,5 l 5.982422,0 0,12.091797 11.933594,-0.04492 0.0625,5.882813 -11.996094,0.04492 0,12.025391 -5.982422,0 0,-12.003906 -12.021484,0.04492 -0.0625,-5.88086 12.083984,-0.04492 0,-12.115234 z"
         transform="translate(0,1012.3622)"
         id="path4400" />
    </g>
    <g
       transform="matrix(1,0,0,-1,62.388303,1105.7182)"
       id="g4402"
       inkscape:label="Layer 1"
       style="fill:#cccccc;fill-opacity:1">
      <path
         id="path4404"
         transform="translate(0,1012.3622)"
         d="M 20,0 A 20,20 0 0 0 0,20 20,20 0 0 0 20,40 20,20 0 0 0 40,20 20,20 0 0 0 20,0 Z M 9.59375,12.175781 20.3125,22.892578 30.763672,12.443359 34.298828,15.978516 20.21875,30.056641 16.683594,26.521484 16.777344,26.427734 6.0585938,15.710938 9.59375,12.175781 Z"
         style="opacity:1;fill:#cccccc;fill-opacity:1;fill-rule:nonzero;stroke:none;stroke-width:1;stroke-linecap:round;stroke-linejoin:round;stroke-miterlimit:4;stroke-dasharray:none;stroke-opacity:1"
         inkscape:connector-curvature="0" />
    </g>
    <path
       style="opacity:1;fill:#cccccc;fill-opacity:1;fill-rule:nonzero;stroke:none;stroke-width:5;stroke-linecap:round;stroke-linejoin:round;stroke-miterlimit:4;stroke-dasharray:none;stroke-opacity:1"
       d="m 180,34.349609 a 20,20 0 0 0 -20,20 20,20 0 0 0 20,20 20,20 0 0 0 20,-20 20,20 0 0 0 -20,-20 z m -7.5,10 a 7.5253816,7.5253816 0 0 1 7.50586,7 l 0.0195,0 a 7.5253816,7.5253816 0 0 1 7.5,-7 7.5253816,7.5253816 0 0 1 7.52539,7.525391 7.5253816,7.5253816 0 0 1 -0.002,0.05859 C 195.38628,59.052402 184.86801,63.421513 180,69.349609 c -5.34496,-6.436628 -16.33159,-11.616636 -15,-18 a 7.5253816,7.5253816 0 0 1 7.5,-7 z"
       transform="translate(22.223356,18.976151)"
       id="path4406"
       inkscape:connector-curvature="0" />
    <path
       id="path4416"
       d="m 202.22335,13.415046 a 20,20 0 0 0 -20,20 20,20 0 0 0 20,20 20,20 0 0 0 20,-20 20,20 0 0 0 -20,-20 z m -7.5,10 a 7.5253816,7.5253816 0 0 1 7.50586,7 l 0.0195,0 a 7.5253816,7.5253816 0 0 1 7.5,-7 7.5253816,7.5253816 0 0 1 7.52539,7.525391 7.5253816,7.5253816 0 0 1 -0.002,0.05859 c 0.33745,7.118808 -10.18082,11.487919 -15.04883,17.416015 -5.34496,-6.436628 -16.33159,-11.616636 -15,-18 a 7.5253816,7.5253816 0 0 1 7.5,-7 z"
       style="opacity:1;fill:#ffffff;fill-opacity:1;fill-rule:nonzero;stroke:none;stroke-width:5;stroke-linecap:round;stroke-linejoin:round;stroke-miterlimit:4;stroke-dasharray:none;stroke-opacity:1"
       inkscape:connector-curvature="0" />
    <path
       style="opacity:1;fill:#ffffff;fill-opacity:1;fill-rule:nonzero;stroke:none;stroke-width:5;stroke-linecap:round;stroke-linejoin:round;stroke-miterlimit:4;stroke-dasharray:none;stroke-opacity:1"
       d="m 220,-5.6503906 a 20,20 0 0 0 -20,19.9999996 20,20 0 0 0 20,20 20,20 0 0 0 20,-20 20,20 0 0 0 -20,-19.9999996 z m 10.71484,8.7871094 5.17774,4.9101562 -5.44531,4.785156 0,-2.9999998 C 225.67889,9.9280412 221.58087,10.602986 218,17.349609 217.51238,11.034854 221.60636,6.3586488 230.71484,6.1367188 l 0,-3 z M 210,4.3496094 l 12,0 -3.03125,3.03125 -5.30664,0 c -2.77,0 -5,2.2300012 -5,4.9999996 l 0,3.939453 c 0,2.770001 2.23,5 5,5 l 12.67578,0 c 2.7026,0 4.88533,-2.124792 4.99023,-4.800781 L 235,14.224609 l 0,5.125 c 0,2.77 -2.23,5 -5,5 l -20,0 c -2.77,0 -5,-2.23 -5,-5 l 0,-9.9999996 c 0,-2.77 2.23,-5 5,-5 z"
       transform="translate(22.223356,18.976151)"
       id="path4418"
       inkscape:connector-curvature="0" />
    <path
       id="path4435"
       d="m 242.22336,53.226786 a 20,20 0 0 0 -20,20 20,20 0 0 0 20,20 20,20 0 0 0 20,-20 20,20 0 0 0 -20,-20 z m 10.71484,8.787109 5.17774,4.910157 -5.44531,4.785156 0,-3 c -4.76838,0.09601 -8.8664,0.770955 -12.44727,7.517578 -0.48762,-6.314755 3.60636,-10.990961 12.71484,-11.212891 l 0,-3 z m -20.71484,1.212891 12,0 -3.03125,3.03125 -5.30664,0 c -2.77,0 -5,2.230001 -5,5 l 0,3.939453 c 0,2.770001 2.23,5 5,5 l 12.67578,0 c 2.7026,0 4.88533,-2.124792 4.99023,-4.800781 l 3.67188,-2.294922 0,5.125 c 0,2.77 -2.23,5 -5,5 l -20,0 c -2.77,0 -5,-2.23 -5,-5 l 0,-10 c 0,-2.77 2.23,-5 5,-5 z"
       style="opacity:1;fill:#cccccc;fill-opacity:1;fill-rule:nonzero;stroke:none;stroke-width:5;stroke-linecap:round;stroke-linejoin:round;stroke-miterlimit:4;stroke-dasharray:none;stroke-opacity:1"
       inkscape:connector-curvature="0" />
    <path
       id="path4455"
       d="m 282.14855,53.226786 a 20,20 0 0 0 -20,20 20,20 0 0 0 20,20 20,20 0 0 0 20,-20 20,20 0 0 0 -20,-20 z m -10.17773,12.544922 10,0 c 2.77,0 5,2.23 5,5 l 0,5 c 0,0.512521 -0.0983,0.996096 -0.24023,1.460938 -1.39186,0.119569 -2.78122,0.116675 -3.93555,-0.466797 0.72351,-0.765024 1.17578,-1.737913 1.17578,-2.816406 l 0,-1.177735 c 0,-2.443536 -2.23,-4.410156 -5,-4.410156 l -4,0 c -2.77,0 -5,1.96662 -5,4.410156 l 0,1.177735 c 0,2.443536 2.23,4.412109 5,4.412109 l 1.70898,0 c 0.56635,1.122725 1.20408,1.901599 1.88282,2.410156 l -6.5918,0 c -2.77,0 -5,-2.23 -5,-5 l 0,-5 c 0,-2.77 2.23,-5 5,-5 z m 13.49805,0.04492 6.59179,0 c 2.77,0 5,2.23 5,5 l 0,5 c 0,2.77 -2.23,5 -5,5 l -10,0 c -2.77,0 -5,-2.23 -5,-5 l 0,-5 c 0,-0.512521 0.0983,-0.996095 0.24024,-1.460937 1.39186,-0.119569 2.78121,-0.116674 3.93554,0.466796 -0.72351,0.765026 -1.17578,1.737914 -1.17578,2.816407 l 0,1.177734 c 0,2.443536 2.23,4.410156 5,4.410156 l 4,0 c 2.77,0 5,-1.96662 5,-4.410156 l 0,-1.177734 c 0,-2.443536 -2.23,-4.41211 -5,-4.41211 l -1.70898,0 c -0.56635,-1.122726 -1.20407,-1.9016 -1.88281,-2.410156 z"
       style="opacity:1;fill:#cccccc;fill-opacity:1;fill-rule:nonzero;stroke:none;stroke-width:5;stroke-linecap:round;stroke-linejoin:round;stroke-miterlimit:4;stroke-dasharray:none;stroke-opacity:1"
       inkscape:connector-curvature="0" />
    <g
       style="fill:#99eeff;fill-opacity:1"
       transform="translate(142.30529,-918.7635)"
       id="g4457"
       inkscape:label="Layer 1">
      <path
         id="path4459"
         transform="translate(0,1012.3622)"
         d="M 20,0 A 20,20 0 0 0 0,20 20,20 0 0 0 20,40 20,20 0 0 0 40,20 20,20 0 0 0 20,0 Z m -15,17 30,0 0,6 -30,0 0,-6 z"
         style="opacity:1;fill:#99eeff;fill-opacity:1;fill-rule:nonzero;stroke:none;stroke-width:5;stroke-linecap:round;stroke-linejoin:round;stroke-miterlimit:4;stroke-dasharray:none;stroke-opacity:1"
         inkscape:connector-curvature="0" />
    </g>
    <g
       style="fill:#99eeff;fill-opacity:1"
       transform="translate(22.35132,-918.87994)"
       id="g4461"
       inkscape:label="Layer 1">
      <path
         id="path4463"
         transform="translate(0,1012.3622)"
         d="M 20,0 A 20,20 0 0 0 0,20 20,20 0 0 0 20,40 20,20 0 0 0 40,20 20,20 0 0 0 20,0 Z M 9.59375,12.175781 20.3125,22.892578 30.763672,12.443359 34.298828,15.978516 20.21875,30.056641 16.683594,26.521484 16.777344,26.427734 6.0585938,15.710938 9.59375,12.175781 Z"
         style="opacity:1;fill:#99eeff;fill-opacity:1;fill-rule:nonzero;stroke:none;stroke-width:1;stroke-linecap:round;stroke-linejoin:round;stroke-miterlimit:4;stroke-dasharray:none;stroke-opacity:1"
         inkscape:connector-curvature="0" />
    </g>
    <g
       style="fill:#99eeff;fill-opacity:1"
       transform="translate(102.2709,-919.12793)"
       id="g4465"
       inkscape:label="Layer 1">
      <path
         id="path4467"
         transform="translate(0,1012.3622)"
         d="M 20,0.08984375 A 20,19.955357 0 0 0 0,20.044922 20,19.955357 0 0 0 20,40 20,19.955357 0 0 0 40,20.044922 20,19.955357 0 0 0 20,0.08984375 Z M 17.052734,5 l 5.982422,0 0,12.091797 11.933594,-0.04492 0.0625,5.882813 -11.996094,0.04492 0,12.025391 -5.982422,0 0,-12.003906 -12.021484,0.04492 -0.0625,-5.88086 12.083984,-0.04492 0,-12.115234 z"
         style="opacity:1;fill:#99eeff;fill-opacity:1;fill-rule:nonzero;stroke:none;stroke-width:1;stroke-linecap:round;stroke-linejoin:round;stroke-miterlimit:4;stroke-dasharray:none;stroke-opacity:1"
         inkscape:connector-curvature="0" />
    </g>
    <g
       style="fill:#99eeff;fill-opacity:1"
       inkscape:label="Layer 1"
       id="g4469"
       transform="matrix(1,0,0,-1,62.388303,1145.7182)">
      <path
         inkscape:connector-curvature="0"
         style="opacity:1;fill:#99eeff;fill-opacity:1;fill-rule:nonzero;stroke:none;stroke-width:1;stroke-linecap:round;stroke-linejoin:round;stroke-miterlimit:4;stroke-dasharray:none;stroke-opacity:1"
         d="M 20,0 A 20,20 0 0 0 0,20 20,20 0 0 0 20,40 20,20 0 0 0 40,20 20,20 0 0 0 20,0 Z M 9.59375,12.175781 20.3125,22.892578 30.763672,12.443359 34.298828,15.978516 20.21875,30.056641 16.683594,26.521484 16.777344,26.427734 6.0585938,15.710938 9.59375,12.175781 Z"
         transform="translate(0,1012.3622)"
         id="path4471" />
    </g>
    <path
       id="path4473"
       d="m 202.22336,93.32576 a 20,20 0 0 0 -20,20 20,20 0 0 0 20,20 20,20 0 0 0 20,-20 20,20 0 0 0 -20,-20 z m -7.5,10 a 7.5253816,7.5253816 0 0 1 7.50586,7 l 0.0195,0 a 7.5253816,7.5253816 0 0 1 7.5,-7 7.5253816,7.5253816 0 0 1 7.52539,7.52539 7.5253816,7.5253816 0 0 1 -0.002,0.0586 c 0.33745,7.1188 -10.18082,11.48791 -15.04883,17.41601 -5.34496,-6.43663 -16.33159,-11.61664 -15,-18 a 7.5253816,7.5253816 0 0 1 7.5,-7 z"
       style="opacity:1;fill:#99eeff;fill-opacity:1;fill-rule:nonzero;stroke:none;stroke-width:5;stroke-linecap:round;stroke-linejoin:round;stroke-miterlimit:4;stroke-dasharray:none;stroke-opacity:1"
       inkscape:connector-curvature="0" />
    <path
       inkscape:connector-curvature="0"
       style="opacity:1;fill:#99eeff;fill-opacity:1;fill-rule:nonzero;stroke:none;stroke-width:5;stroke-linecap:round;stroke-linejoin:round;stroke-miterlimit:4;stroke-dasharray:none;stroke-opacity:1"
       d="m 242.22336,93.226786 a 20,20 0 0 0 -20,20.000004 20,20 0 0 0 20,20 20,20 0 0 0 20,-20 20,20 0 0 0 -20,-20.000004 z m 10.71484,8.787114 5.17774,4.91015 -5.44531,4.78516 0,-3 c -4.76838,0.096 -8.8664,0.77095 -12.44727,7.51758 -0.48762,-6.31476 3.60636,-10.99096 12.71484,-11.21289 l 0,-3 z m -20.71484,1.21289 12,0 -3.03125,3.03125 -5.30664,0 c -2.77,0 -5,2.23 -5,5 l 0,3.93945 c 0,2.77 2.23,5 5,5 l 12.67578,0 c 2.7026,0 4.88533,-2.12479 4.99023,-4.80078 l 3.67188,-2.29492 0,5.125 c 0,2.77 -2.23,5 -5,5 l -20,0 c -2.77,0 -5,-2.23 -5,-5 l 0,-10 c 0,-2.77 2.23,-5 5,-5 z"
       id="path4475" />
    <path
       inkscape:connector-curvature="0"
       style="opacity:1;fill:#99eeff;fill-opacity:1;fill-rule:nonzero;stroke:none;stroke-width:5;stroke-linecap:round;stroke-linejoin:round;stroke-miterlimit:4;stroke-dasharray:none;stroke-opacity:1"
       d="m 282.14855,93.226786 a 20,20 0 0 0 -20,20.000004 20,20 0 0 0 20,20 20,20 0 0 0 20,-20 20,20 0 0 0 -20,-20.000004 z m -10.17773,12.544924 10,0 c 2.77,0 5,2.23 5,5 l 0,5 c 0,0.51252 -0.0983,0.99609 -0.24023,1.46094 -1.39186,0.11957 -2.78122,0.11667 -3.93555,-0.4668 0.72351,-0.76502 1.17578,-1.73791 1.17578,-2.81641 l 0,-1.17773 c 0,-2.44354 -2.23,-4.41016 -5,-4.41016 l -4,0 c -2.77,0 -5,1.96662 -5,4.41016 l 0,1.17773 c 0,2.44354 2.23,4.41211 5,4.41211 l 1.70898,0 c 0.56635,1.12273 1.20408,1.9016 1.88282,2.41016 l -6.5918,0 c -2.77,0 -5,-2.23 -5,-5 l 0,-5 c 0,-2.77 2.23,-5 5,-5 z m 13.49805,0.0449 6.59179,0 c 2.77,0 5,2.23 5,5 l 0,5 c 0,2.77 -2.23,5 -5,5 l -10,0 c -2.77,0 -5,-2.23 -5,-5 l 0,-5 c 0,-0.51252 0.0983,-0.9961 0.24024,-1.46094 1.39186,-0.11957 2.78121,-0.11667 3.93554,0.4668 -0.72351,0.76502 -1.17578,1.73791 -1.17578,2.8164 l 0,1.17774 c 0,2.44353 2.23,4.41015 5,4.41015 l 4,0 c 2.77,0 5,-1.96662 5,-4.41015 l 0,-1.17774 c 0,-2.44353 -2.23,-4.41211 -5,-4.41211 l -1.70898,0 c -0.56635,-1.12272 -1.20407,-1.9016 -1.88281,-2.41015 z"
       id="path4477" />
  </g>
</svg>
